<?xml version="1.0" standalone="no"?>
<!DOCTYPE svg PUBLIC "-//W3C//DTD SVG 20010904//EN"
 "http://www.w3.org/TR/2001/REC-SVG-20010904/DTD/svg10.dtd">
<svg version="1.0" xmlns="http://www.w3.org/2000/svg"
 width="512.000000pt" height="512.000000pt" viewBox="0 0 512.000000 512.000000"
 preserveAspectRatio="xMidYMid meet">

<g transform="translate(0.000000,512.000000) scale(0.100000,-0.100000)"
fill="#000000" stroke="none">
<path d="M73 4915 c-76 -33 -95 -138 -37 -195 18 -18 132 -73 308 -149 153
-66 280 -122 282 -123 1 -2 140 -673 309 -1493 177 -860 315 -1505 325 -1526
22 -43 80 -95 129 -118 33 -14 177 -16 1541 -19 828 -2 1529 0 1559 3 100 12
155 96 116 178 -9 20 -29 44 -43 54 -26 17 -100 18 -1554 21 -841 1 -1528 4
-1528 7 0 2 -16 79 -35 171 -19 91 -35 170 -35 175 0 5 639 9 1583 9 l1582 0
50 24 c54 25 100 71 121 122 7 17 95 427 194 910 194 938 193 930 151 1012
-23 45 -79 98 -130 121 -33 15 -214 16 -2023 19 -1094 1 -1988 4 -1988 7 0 2
-18 93 -41 202 -46 223 -69 279 -134 322 -53 36 -618 281 -647 281 -13 -1 -38
-7 -55 -15z m4791 -1072 c-8 -35 -344 -1672 -344 -1677 0 -3 -712 -6 -1582 -6
l-1583 0 -173 843 c-95 463 -173 845 -172 850 0 4 868 7 1929 7 1832 0 1929
-1 1925 -17z"/>
<path d="M1954 3427 c-68 -62 -51 -168 31 -203 52 -22 1862 -21 1905 1 68 35
91 118 51 179 -38 58 11 55 -1009 56 l-942 0 -36 -33z"/>
<path d="M2069 2787 c-41 -28 -59 -60 -59 -111 0 -31 7 -45 39 -77 l39 -39
841 0 c924 0 884 -3 916 60 20 38 19 95 -2 131 -36 61 -1 59 -911 59 l-829 0
-34 -23z"/>
<path d="M2018 1071 c-126 -41 -219 -122 -277 -241 -35 -73 -36 -78 -36 -190
0 -112 1 -117 37 -191 88 -180 282 -283 473 -251 244 40 415 273 376 510 -46
271 -318 444 -573 363z m200 -247 c135 -56 169 -214 68 -319 -116 -121 -318
-52 -334 114 -14 151 130 262 266 205z"/>
<path d="M3598 1071 c-127 -41 -220 -122 -277 -241 -35 -73 -36 -79 -36 -191
0 -113 1 -116 38 -191 88 -179 282 -282 472 -250 243 40 412 270 375 510 -42
269 -318 444 -572 363z m207 -250 c56 -26 96 -72 110 -127 33 -130 -59 -250
-191 -249 -212 3 -269 294 -74 379 47 21 107 19 155 -3z"/>
</g>
</svg>
